<?xml version="1.0" encoding="utf-8" standalone="no"?>
<!DOCTYPE svg PUBLIC "-//W3C//DTD SVG 1.1//EN"
  "http://www.w3.org/Graphics/SVG/1.1/DTD/svg11.dtd">
<!-- Created with matplotlib (https://matplotlib.org/) -->
<svg height="566.103594pt" version="1.1" viewBox="0 0 565.313437 566.103594" width="565.313437pt" xmlns="http://www.w3.org/2000/svg" xmlns:xlink="http://www.w3.org/1999/xlink">
 <defs>
  <style type="text/css">
*{stroke-linecap:butt;stroke-linejoin:round;}
  </style>
 </defs>
 <g id="figure_1">
  <g id="patch_1">
   <path d="M 0 566.103594 
L 565.313437 566.103594 
L 565.313437 0 
L 0 0 
z
" style="fill:#ffffff;"/>
  </g>
  <g id="axes_1">
   <g id="patch_2">
    <path d="M 43.908438 256.599375 
L 291.530937 256.599375 
L 291.530937 21.789375 
L 43.908438 21.789375 
z
" style="fill:#ffffff;"/>
   </g>
   <g id="matplotlib.axis_1">
    <g id="xtick_1">
     <g id="line2d_1">
      <defs>
       <path d="M 0 0 
L 0 6 
" id="m950a237a4c" style="stroke:#262626;stroke-width:1.25;"/>
      </defs>
      <g>
       <use style="fill:#262626;stroke:#262626;stroke-width:1.25;" x="96.782987" xlink:href="#m950a237a4c" y="256.599375"/>
      </g>
     </g>
    </g>
    <g id="xtick_2">
     <g id="line2d_2">
      <g>
       <use style="fill:#262626;stroke:#262626;stroke-width:1.25;" x="151.506028" xlink:href="#m950a237a4c" y="256.599375"/>
      </g>
     </g>
    </g>
    <g id="xtick_3">
     <g id="line2d_3">
      <g>
       <use style="fill:#262626;stroke:#262626;stroke-width:1.25;" x="206.22907" xlink:href="#m950a237a4c" y="256.599375"/>
      </g>
     </g>
    </g>
    <g id="xtick_4">
     <g id="line2d_4">
      <g>
       <use style="fill:#262626;stroke:#262626;stroke-width:1.25;" x="260.952111" xlink:href="#m950a237a4c" y="256.599375"/>
      </g>
     </g>
    </g>
   </g>
   <g id="matplotlib.axis_2">
    <g id="ytick_1">
     <g id="line2d_5">
      <defs>
       <path d="M 0 0 
L -6 0 
" id="m11181487e5" style="stroke:#262626;stroke-width:1.25;"/>
      </defs>
      <g>
       <use style="fill:#262626;stroke:#262626;stroke-width:1.25;" x="43.908438" xlink:href="#m11181487e5" y="226.601761"/>
      </g>
     </g>
     <g id="text_1">
      <!-- 4 -->
      <defs>
       <path d="M 32.328125 0 
L 32.328125 17.140625 
L 1.265625 17.140625 
L 1.265625 25.203125 
L 33.9375 71.578125 
L 41.109375 71.578125 
L 41.109375 25.203125 
L 50.78125 25.203125 
L 50.78125 17.140625 
L 41.109375 17.140625 
L 41.109375 0 
z
M 32.328125 25.203125 
L 32.328125 57.46875 
L 9.90625 25.203125 
z
" id="ArialMT-52"/>
      </defs>
      <g style="fill:#262626;" transform="translate(28.291406 230.538558)scale(0.11 -0.11)">
       <use xlink:href="#ArialMT-52"/>
      </g>
     </g>
    </g>
    <g id="ytick_2">
     <g id="line2d_6">
      <g>
       <use style="fill:#262626;stroke:#262626;stroke-width:1.25;" x="43.908438" xlink:href="#m11181487e5" y="189.25522"/>
      </g>
     </g>
     <g id="text_2">
      <!-- 6 -->
      <defs>
       <path d="M 49.75 54.046875 
L 41.015625 53.375 
Q 39.84375 58.546875 37.703125 60.890625 
Q 34.125 64.65625 28.90625 64.65625 
Q 24.703125 64.65625 21.53125 62.3125 
Q 17.390625 59.28125 14.984375 53.46875 
Q 12.59375 47.65625 12.5 36.921875 
Q 15.671875 41.75 20.265625 44.09375 
Q 24.859375 46.4375 29.890625 46.4375 
Q 38.671875 46.4375 44.84375 39.96875 
Q 51.03125 33.5 51.03125 23.25 
Q 51.03125 16.5 48.125 10.71875 
Q 45.21875 4.9375 40.140625 1.859375 
Q 35.0625 -1.21875 28.609375 -1.21875 
Q 17.625 -1.21875 10.6875 6.859375 
Q 3.765625 14.9375 3.765625 33.5 
Q 3.765625 54.25 11.421875 63.671875 
Q 18.109375 71.875 29.4375 71.875 
Q 37.890625 71.875 43.28125 67.140625 
Q 48.6875 62.40625 49.75 54.046875 
z
M 13.875 23.1875 
Q 13.875 18.65625 15.796875 14.5 
Q 17.71875 10.359375 21.1875 8.171875 
Q 24.65625 6 28.46875 6 
Q 34.03125 6 38.03125 10.484375 
Q 42.046875 14.984375 42.046875 22.703125 
Q 42.046875 30.125 38.078125 34.390625 
Q 34.125 38.671875 28.125 38.671875 
Q 22.171875 38.671875 18.015625 34.390625 
Q 13.875 30.125 13.875 23.1875 
z
" id="ArialMT-54"/>
      </defs>
      <g style="fill:#262626;" transform="translate(28.291406 193.192017)scale(0.11 -0.11)">
       <use xlink:href="#ArialMT-54"/>
      </g>
     </g>
    </g>
    <g id="ytick_3">
     <g id="line2d_7">
      <g>
       <use style="fill:#262626;stroke:#262626;stroke-width:1.25;" x="43.908438" xlink:href="#m11181487e5" y="151.908679"/>
      </g>
     </g>
     <g id="text_3">
      <!-- 8 -->
      <defs>
       <path d="M 17.671875 38.8125 
Q 12.203125 40.828125 9.5625 44.53125 
Q 6.9375 48.25 6.9375 53.421875 
Q 6.9375 61.234375 12.546875 66.546875 
Q 18.171875 71.875 27.484375 71.875 
Q 36.859375 71.875 42.578125 66.421875 
Q 48.296875 60.984375 48.296875 53.171875 
Q 48.296875 48.1875 45.671875 44.5 
Q 43.0625 40.828125 37.75 38.8125 
Q 44.34375 36.671875 47.78125 31.875 
Q 51.21875 27.09375 51.21875 20.453125 
Q 51.21875 11.28125 44.71875 5.03125 
Q 38.234375 -1.21875 27.640625 -1.21875 
Q 17.046875 -1.21875 10.546875 5.046875 
Q 4.046875 11.328125 4.046875 20.703125 
Q 4.046875 27.6875 7.59375 32.390625 
Q 11.140625 37.109375 17.671875 38.8125 
z
M 15.921875 53.71875 
Q 15.921875 48.640625 19.1875 45.40625 
Q 22.46875 42.1875 27.6875 42.1875 
Q 32.765625 42.1875 36.015625 45.375 
Q 39.265625 48.578125 39.265625 53.21875 
Q 39.265625 58.0625 35.90625 61.359375 
Q 32.5625 64.65625 27.59375 64.65625 
Q 22.5625 64.65625 19.234375 61.421875 
Q 15.921875 58.203125 15.921875 53.71875 
z
M 13.09375 20.65625 
Q 13.09375 16.890625 14.875 13.375 
Q 16.65625 9.859375 20.171875 7.921875 
Q 23.6875 6 27.734375 6 
Q 34.03125 6 38.125 10.046875 
Q 42.234375 14.109375 42.234375 20.359375 
Q 42.234375 26.703125 38.015625 30.859375 
Q 33.796875 35.015625 27.4375 35.015625 
Q 21.234375 35.015625 17.15625 30.90625 
Q 13.09375 26.8125 13.09375 20.65625 
z
" id="ArialMT-56"/>
      </defs>
      <g style="fill:#262626;" transform="translate(28.291406 155.845476)scale(0.11 -0.11)">
       <use xlink:href="#ArialMT-56"/>
      </g>
     </g>
    </g>
    <g id="ytick_4">
     <g id="line2d_8">
      <g>
       <use style="fill:#262626;stroke:#262626;stroke-width:1.25;" x="43.908438" xlink:href="#m11181487e5" y="114.562138"/>
      </g>
     </g>
     <g id="text_4">
      <!-- 10 -->
      <defs>
       <path d="M 37.25 0 
L 28.46875 0 
L 28.46875 56 
Q 25.296875 52.984375 20.140625 49.953125 
Q 14.984375 46.921875 10.890625 45.40625 
L 10.890625 53.90625 
Q 18.265625 57.375 23.78125 62.296875 
Q 29.296875 67.234375 31.59375 71.875 
L 37.25 71.875 
z
" id="ArialMT-49"/>
       <path d="M 4.15625 35.296875 
Q 4.15625 48 6.765625 55.734375 
Q 9.375 63.484375 14.515625 67.671875 
Q 19.671875 71.875 27.484375 71.875 
Q 33.25 71.875 37.59375 69.546875 
Q 41.9375 67.234375 44.765625 62.859375 
Q 47.609375 58.5 49.21875 52.21875 
Q 50.828125 45.953125 50.828125 35.296875 
Q 50.828125 22.703125 48.234375 14.96875 
Q 45.65625 7.234375 40.5 3 
Q 35.359375 -1.21875 27.484375 -1.21875 
Q 17.140625 -1.21875 11.234375 6.203125 
Q 4.15625 15.140625 4.15625 35.296875 
z
M 13.1875 35.296875 
Q 13.1875 17.671875 17.3125 11.828125 
Q 21.4375 6 27.484375 6 
Q 33.546875 6 37.671875 11.859375 
Q 41.796875 17.71875 41.796875 35.296875 
Q 41.796875 52.984375 37.671875 58.78125 
Q 33.546875 64.59375 27.390625 64.59375 
Q 21.34375 64.59375 17.71875 59.46875 
Q 13.1875 52.9375 13.1875 35.296875 
z
" id="ArialMT-48"/>
      </defs>
      <g style="fill:#262626;" transform="translate(22.174375 118.498935)scale(0.11 -0.11)">
       <use xlink:href="#ArialMT-49"/>
       <use x="55.615234" xlink:href="#ArialMT-48"/>
      </g>
     </g>
    </g>
    <g id="ytick_5">
     <g id="line2d_9">
      <g>
       <use style="fill:#262626;stroke:#262626;stroke-width:1.25;" x="43.908438" xlink:href="#m11181487e5" y="77.215597"/>
      </g>
     </g>
     <g id="text_5">
      <!-- 12 -->
      <defs>
       <path d="M 50.34375 8.453125 
L 50.34375 0 
L 3.03125 0 
Q 2.9375 3.171875 4.046875 6.109375 
Q 5.859375 10.9375 9.828125 15.625 
Q 13.8125 20.3125 21.34375 26.46875 
Q 33.015625 36.03125 37.109375 41.625 
Q 41.21875 47.21875 41.21875 52.203125 
Q 41.21875 57.421875 37.46875 61 
Q 33.734375 64.59375 27.734375 64.59375 
Q 21.390625 64.59375 17.578125 60.78125 
Q 13.765625 56.984375 13.71875 50.25 
L 4.6875 51.171875 
Q 5.609375 61.28125 11.65625 66.578125 
Q 17.71875 71.875 27.9375 71.875 
Q 38.234375 71.875 44.234375 66.15625 
Q 50.25 60.453125 50.25 52 
Q 50.25 47.703125 48.484375 43.546875 
Q 46.734375 39.40625 42.65625 34.8125 
Q 38.578125 30.21875 29.109375 22.21875 
Q 21.1875 15.578125 18.9375 13.203125 
Q 16.703125 10.84375 15.234375 8.453125 
z
" id="ArialMT-50"/>
      </defs>
      <g style="fill:#262626;" transform="translate(22.174375 81.152393)scale(0.11 -0.11)">
       <use xlink:href="#ArialMT-49"/>
       <use x="55.615234" xlink:href="#ArialMT-50"/>
      </g>
     </g>
    </g>
    <g id="ytick_6">
     <g id="line2d_10">
      <g>
       <use style="fill:#262626;stroke:#262626;stroke-width:1.25;" x="43.908438" xlink:href="#m11181487e5" y="39.869055"/>
      </g>
     </g>
     <g id="text_6">
      <!-- 14 -->
      <g style="fill:#262626;" transform="translate(22.174375 43.805852)scale(0.11 -0.11)">
       <use xlink:href="#ArialMT-49"/>
       <use x="55.615234" xlink:href="#ArialMT-52"/>
      </g>
     </g>
    </g>
    <g id="text_7">
     <!-- y -->
     <defs>
      <path d="M 6.203125 -19.96875 
L 5.21875 -11.71875 
Q 8.109375 -12.5 10.25 -12.5 
Q 13.1875 -12.5 14.9375 -11.515625 
Q 16.703125 -10.546875 17.828125 -8.796875 
Q 18.65625 -7.46875 20.515625 -2.25 
Q 20.75 -1.515625 21.296875 -0.09375 
L 1.609375 51.859375 
L 11.078125 51.859375 
L 21.875 21.828125 
Q 23.96875 16.109375 25.640625 9.8125 
Q 27.15625 15.875 29.25 21.625 
L 40.328125 51.859375 
L 49.125 51.859375 
L 29.390625 -0.875 
Q 26.21875 -9.421875 24.46875 -12.640625 
Q 22.125 -17 19.09375 -19.015625 
Q 16.0625 -21.046875 11.859375 -21.046875 
Q 9.328125 -21.046875 6.203125 -19.96875 
z
" id="ArialMT-121"/>
     </defs>
     <g style="fill:#262626;" transform="translate(15.64875 142.194375)rotate(-90)scale(0.12 -0.12)">
      <use xlink:href="#ArialMT-121"/>
     </g>
    </g>
   </g>
   <g id="PathCollection_1">
    <defs>
     <path d="M 0 3.535534 
C 0.937635 3.535534 1.836992 3.163008 2.5 2.5 
C 3.163008 1.836992 3.535534 0.937635 3.535534 0 
C 3.535534 -0.937635 3.163008 -1.836992 2.5 -2.5 
C 1.836992 -3.163008 0.937635 -3.535534 0 -3.535534 
C -0.937635 -3.535534 -1.836992 -3.163008 -2.5 -2.5 
C -3.163008 -1.836992 -3.535534 -0.937635 -3.535534 0 
C -3.535534 0.937635 -3.163008 1.836992 -2.5 2.5 
C -1.836992 3.163008 -0.937635 3.535534 0 3.535534 
z
" id="m4eae248432" style="stroke:#4878d0;"/>
    </defs>
    <g clip-path="url(#p3473fd98e6)">
     <use style="fill:#4878d0;stroke:#4878d0;" x="151.506028" xlink:href="#m4eae248432" y="151.161748"/>
     <use style="fill:#4878d0;stroke:#4878d0;" x="129.616812" xlink:href="#m4eae248432" y="171.515613"/>
     <use style="fill:#4878d0;stroke:#4878d0;" x="184.339853" xlink:href="#m4eae248432" y="159.751452"/>
     <use style="fill:#4878d0;stroke:#4878d0;" x="140.56142" xlink:href="#m4eae248432" y="136.78333"/>
     <use style="fill:#4878d0;stroke:#4878d0;" x="162.450637" xlink:href="#m4eae248432" y="145.746499"/>
     <use style="fill:#4878d0;stroke:#4878d0;" x="195.284462" xlink:href="#m4eae248432" y="115.309068"/>
     <use style="fill:#4878d0;stroke:#4878d0;" x="107.727595" xlink:href="#m4eae248432" y="166.100364"/>
     <use style="fill:#4878d0;stroke:#4878d0;" x="85.838379" xlink:href="#m4eae248432" y="221.746711"/>
     <use style="fill:#4878d0;stroke:#4878d0;" x="173.395245" xlink:href="#m4eae248432" y="98.87659"/>
     <use style="fill:#4878d0;stroke:#4878d0;" x="118.672204" xlink:href="#m4eae248432" y="211.289679"/>
     <use style="fill:#4878d0;stroke:#4878d0;" x="96.782987" xlink:href="#m4eae248432" y="195.230666"/>
    </g>
   </g>
   <g id="line2d_11">
    <path clip-path="url(#p3473fd98e6)" d="M 74.698463 217.424979 
L 76.57768 215.821564 
L 78.456896 214.218149 
L 80.336113 212.614733 
L 82.215329 211.011318 
L 84.094546 209.407903 
L 85.973763 207.804488 
L 87.852979 206.201073 
L 89.732196 204.597658 
L 91.611413 202.994243 
L 93.490629 201.390827 
L 95.369846 199.787412 
L 97.249063 198.183997 
L 99.128279 196.580582 
L 101.007496 194.977167 
L 102.886713 193.373752 
L 104.765929 191.770337 
L 106.645146 190.166921 
L 108.524363 188.563506 
L 110.403579 186.960091 
L 112.282796 185.356676 
L 114.162013 183.753261 
L 116.041229 182.149846 
L 117.920446 180.546431 
L 119.799663 178.943015 
L 121.678879 177.3396 
L 123.558096 175.736185 
L 125.437313 174.13277 
L 127.316529 172.529355 
L 129.195746 170.92594 
L 131.074963 169.322525 
L 132.954179 167.719109 
L 134.833396 166.115694 
L 136.712613 164.512279 
L 138.591829 162.908864 
L 140.471046 161.305449 
L 142.350263 159.702034 
L 144.229479 158.098619 
L 146.108696 156.495203 
L 147.987913 154.891788 
L 149.867129 153.288373 
L 151.746346 151.684958 
L 153.625563 150.081543 
L 155.504779 148.478128 
L 157.383996 146.874713 
L 159.263213 145.271297 
L 161.142429 143.667882 
L 163.021646 142.064467 
L 164.900863 140.461052 
L 166.780079 138.857637 
L 168.659296 137.254222 
L 170.538512 135.650807 
L 172.417729 134.047391 
L 174.296946 132.443976 
L 176.176162 130.840561 
L 178.055379 129.237146 
L 179.934596 127.633731 
L 181.813812 126.030316 
L 183.693029 124.426901 
L 185.572246 122.823485 
L 187.451462 121.22007 
L 189.330679 119.616655 
L 191.209896 118.01324 
L 193.089112 116.409825 
L 194.968329 114.80641 
L 196.847546 113.202995 
L 198.726762 111.599579 
L 200.605979 109.996164 
L 202.485196 108.392749 
L 204.364412 106.789334 
L 206.243629 105.185919 
L 208.122846 103.582504 
L 210.002062 101.979089 
L 211.881279 100.375673 
L 213.760496 98.772258 
L 215.639712 97.168843 
L 217.518929 95.565428 
L 219.398146 93.962013 
L 221.277362 92.358598 
L 223.156579 90.755183 
L 225.035796 89.151767 
L 226.915012 87.548352 
L 228.794229 85.944937 
L 230.673446 84.341522 
L 232.552662 82.738107 
L 234.431879 81.134692 
L 236.311096 79.531277 
L 238.190312 77.927861 
L 240.069529 76.324446 
L 241.948746 74.721031 
L 243.827962 73.117616 
L 245.707179 71.514201 
L 247.586396 69.910786 
L 249.465612 68.307371 
L 251.344829 66.703955 
L 253.224046 65.10054 
L 255.103262 63.497125 
L 256.982479 61.89371 
L 258.861695 60.290295 
L 260.740912 58.68688 
" style="fill:none;stroke:#4878d0;stroke-linecap:round;stroke-width:2.25;"/>
   </g>
   <g id="patch_3">
    <path d="M 43.908438 256.599375 
L 43.908438 21.789375 
" style="fill:none;stroke:#262626;stroke-linecap:square;stroke-linejoin:miter;stroke-width:1.25;"/>
   </g>
   <g id="patch_4">
    <path d="M 43.908438 256.599375 
L 291.530937 256.599375 
" style="fill:none;stroke:#262626;stroke-linecap:square;stroke-linejoin:miter;stroke-width:1.25;"/>
   </g>
   <g id="text_8">
    <!-- dataset = I -->
    <defs>
     <path d="M 40.234375 0 
L 40.234375 6.546875 
Q 35.296875 -1.171875 25.734375 -1.171875 
Q 19.53125 -1.171875 14.328125 2.25 
Q 9.125 5.671875 6.265625 11.796875 
Q 3.421875 17.921875 3.421875 25.875 
Q 3.421875 33.640625 6 39.96875 
Q 8.59375 46.296875 13.765625 49.65625 
Q 18.953125 53.03125 25.34375 53.03125 
Q 30.03125 53.03125 33.6875 51.046875 
Q 37.359375 49.078125 39.65625 45.90625 
L 39.65625 71.578125 
L 48.390625 71.578125 
L 48.390625 0 
z
M 12.453125 25.875 
Q 12.453125 15.921875 16.640625 10.984375 
Q 20.84375 6.0625 26.5625 6.0625 
Q 32.328125 6.0625 36.34375 10.765625 
Q 40.375 15.484375 40.375 25.140625 
Q 40.375 35.796875 36.265625 40.765625 
Q 32.171875 45.75 26.171875 45.75 
Q 20.3125 45.75 16.375 40.96875 
Q 12.453125 36.1875 12.453125 25.875 
z
" id="ArialMT-100"/>
     <path d="M 40.4375 6.390625 
Q 35.546875 2.25 31.03125 0.53125 
Q 26.515625 -1.171875 21.34375 -1.171875 
Q 12.796875 -1.171875 8.203125 3 
Q 3.609375 7.171875 3.609375 13.671875 
Q 3.609375 17.484375 5.34375 20.625 
Q 7.078125 23.78125 9.890625 25.6875 
Q 12.703125 27.59375 16.21875 28.5625 
Q 18.796875 29.25 24.03125 29.890625 
Q 34.671875 31.15625 39.703125 32.90625 
Q 39.75 34.71875 39.75 35.203125 
Q 39.75 40.578125 37.25 42.78125 
Q 33.890625 45.75 27.25 45.75 
Q 21.046875 45.75 18.09375 43.578125 
Q 15.140625 41.40625 13.71875 35.890625 
L 5.125 37.0625 
Q 6.296875 42.578125 8.984375 45.96875 
Q 11.671875 49.359375 16.75 51.1875 
Q 21.828125 53.03125 28.515625 53.03125 
Q 35.15625 53.03125 39.296875 51.46875 
Q 43.453125 49.90625 45.40625 47.53125 
Q 47.359375 45.171875 48.140625 41.546875 
Q 48.578125 39.3125 48.578125 33.453125 
L 48.578125 21.734375 
Q 48.578125 9.46875 49.140625 6.21875 
Q 49.703125 2.984375 51.375 0 
L 42.1875 0 
Q 40.828125 2.734375 40.4375 6.390625 
z
M 39.703125 26.03125 
Q 34.90625 24.078125 25.34375 22.703125 
Q 19.921875 21.921875 17.671875 20.9375 
Q 15.4375 19.96875 14.203125 18.09375 
Q 12.984375 16.21875 12.984375 13.921875 
Q 12.984375 10.40625 15.640625 8.0625 
Q 18.3125 5.71875 23.4375 5.71875 
Q 28.515625 5.71875 32.46875 7.9375 
Q 36.421875 10.15625 38.28125 14.015625 
Q 39.703125 17 39.703125 22.796875 
z
" id="ArialMT-97"/>
     <path d="M 25.78125 7.859375 
L 27.046875 0.09375 
Q 23.34375 -0.6875 20.40625 -0.6875 
Q 15.625 -0.6875 12.984375 0.828125 
Q 10.359375 2.34375 9.28125 4.8125 
Q 8.203125 7.28125 8.203125 15.1875 
L 8.203125 45.015625 
L 1.765625 45.015625 
L 1.765625 51.859375 
L 8.203125 51.859375 
L 8.203125 64.703125 
L 16.9375 69.96875 
L 16.9375 51.859375 
L 25.78125 51.859375 
L 25.78125 45.015625 
L 16.9375 45.015625 
L 16.9375 14.703125 
Q 16.9375 10.9375 17.40625 9.859375 
Q 17.875 8.796875 18.921875 8.15625 
Q 19.96875 7.515625 21.921875 7.515625 
Q 23.390625 7.515625 25.78125 7.859375 
z
" id="ArialMT-116"/>
     <path d="M 3.078125 15.484375 
L 11.765625 16.84375 
Q 12.5 11.625 15.84375 8.84375 
Q 19.1875 6.0625 25.203125 6.0625 
Q 31.25 6.0625 34.171875 8.515625 
Q 37.109375 10.984375 37.109375 14.3125 
Q 37.109375 17.28125 34.515625 19 
Q 32.71875 20.171875 25.53125 21.96875 
Q 15.875 24.421875 12.140625 26.203125 
Q 8.40625 27.984375 6.46875 31.125 
Q 4.546875 34.28125 4.546875 38.09375 
Q 4.546875 41.546875 6.125 44.5 
Q 7.71875 47.46875 10.453125 49.421875 
Q 12.5 50.921875 16.03125 51.96875 
Q 19.578125 53.03125 23.640625 53.03125 
Q 29.734375 53.03125 34.34375 51.265625 
Q 38.96875 49.515625 41.15625 46.5 
Q 43.359375 43.5 44.1875 38.484375 
L 35.59375 37.3125 
Q 35.015625 41.3125 32.203125 43.546875 
Q 29.390625 45.796875 24.265625 45.796875 
Q 18.21875 45.796875 15.625 43.796875 
Q 13.03125 41.796875 13.03125 39.109375 
Q 13.03125 37.40625 14.109375 36.03125 
Q 15.1875 34.625 17.484375 33.6875 
Q 18.796875 33.203125 25.25 31.453125 
Q 34.578125 28.953125 38.25 27.359375 
Q 41.9375 25.78125 44.03125 22.75 
Q 46.140625 19.734375 46.140625 15.234375 
Q 46.140625 10.84375 43.578125 6.953125 
Q 41.015625 3.078125 36.171875 0.953125 
Q 31.34375 -1.171875 25.25 -1.171875 
Q 15.140625 -1.171875 9.84375 3.03125 
Q 4.546875 7.234375 3.078125 15.484375 
z
" id="ArialMT-115"/>
     <path d="M 42.09375 16.703125 
L 51.171875 15.578125 
Q 49.03125 7.625 43.21875 3.21875 
Q 37.40625 -1.171875 28.375 -1.171875 
Q 17 -1.171875 10.328125 5.828125 
Q 3.65625 12.84375 3.65625 25.484375 
Q 3.65625 38.578125 10.390625 45.796875 
Q 17.140625 53.03125 27.875 53.03125 
Q 38.28125 53.03125 44.875 45.953125 
Q 51.46875 38.875 51.46875 26.03125 
Q 51.46875 25.25 51.421875 23.6875 
L 12.75 23.6875 
Q 13.234375 15.140625 17.578125 10.59375 
Q 21.921875 6.0625 28.421875 6.0625 
Q 33.25 6.0625 36.671875 8.59375 
Q 40.09375 11.140625 42.09375 16.703125 
z
M 13.234375 30.90625 
L 42.1875 30.90625 
Q 41.609375 37.453125 38.875 40.71875 
Q 34.671875 45.796875 27.984375 45.796875 
Q 21.921875 45.796875 17.796875 41.75 
Q 13.671875 37.703125 13.234375 30.90625 
z
" id="ArialMT-101"/>
     <path id="ArialMT-32"/>
     <path d="M 52.828125 42.09375 
L 5.5625 42.09375 
L 5.5625 50.296875 
L 52.828125 50.296875 
z
M 52.828125 20.359375 
L 5.5625 20.359375 
L 5.5625 28.5625 
L 52.828125 28.5625 
z
" id="ArialMT-61"/>
     <path d="M 9.328125 0 
L 9.328125 71.578125 
L 18.796875 71.578125 
L 18.796875 0 
z
" id="ArialMT-73"/>
    </defs>
    <g style="fill:#262626;" transform="translate(139.534687 15.789375)scale(0.12 -0.12)">
     <use xlink:href="#ArialMT-100"/>
     <use x="55.615234" xlink:href="#ArialMT-97"/>
     <use x="111.230469" xlink:href="#ArialMT-116"/>
     <use x="139.013672" xlink:href="#ArialMT-97"/>
     <use x="194.628906" xlink:href="#ArialMT-115"/>
     <use x="244.628906" xlink:href="#ArialMT-101"/>
     <use x="300.244141" xlink:href="#ArialMT-116"/>
     <use x="328.027344" xlink:href="#ArialMT-32"/>
     <use x="355.810547" xlink:href="#ArialMT-61"/>
     <use x="414.208984" xlink:href="#ArialMT-32"/>
     <use x="441.992188" xlink:href="#ArialMT-73"/>
    </g>
   </g>
  </g>
  <g id="axes_2">
   <g id="patch_5">
    <path d="M 310.490937 256.599375 
L 558.113437 256.599375 
L 558.113437 21.789375 
L 310.490937 21.789375 
z
" style="fill:#ffffff;"/>
   </g>
   <g id="matplotlib.axis_3">
    <g id="xtick_5">
     <g id="line2d_12">
      <g>
       <use style="fill:#262626;stroke:#262626;stroke-width:1.25;" x="363.365487" xlink:href="#m950a237a4c" y="256.599375"/>
      </g>
     </g>
    </g>
    <g id="xtick_6">
     <g id="line2d_13">
      <g>
       <use style="fill:#262626;stroke:#262626;stroke-width:1.25;" x="418.088528" xlink:href="#m950a237a4c" y="256.599375"/>
      </g>
     </g>
    </g>
    <g id="xtick_7">
     <g id="line2d_14">
      <g>
       <use style="fill:#262626;stroke:#262626;stroke-width:1.25;" x="472.81157" xlink:href="#m950a237a4c" y="256.599375"/>
      </g>
     </g>
    </g>
    <g id="xtick_8">
     <g id="line2d_15">
      <g>
       <use style="fill:#262626;stroke:#262626;stroke-width:1.25;" x="527.534611" xlink:href="#m950a237a4c" y="256.599375"/>
      </g>
     </g>
    </g>
   </g>
   <g id="matplotlib.axis_4">
    <g id="ytick_7">
     <g id="line2d_16">
      <g>
       <use style="fill:#262626;stroke:#262626;stroke-width:1.25;" x="310.490937" xlink:href="#m11181487e5" y="226.601761"/>
      </g>
     </g>
    </g>
    <g id="ytick_8">
     <g id="line2d_17">
      <g>
       <use style="fill:#262626;stroke:#262626;stroke-width:1.25;" x="310.490937" xlink:href="#m11181487e5" y="189.25522"/>
      </g>
     </g>
    </g>
    <g id="ytick_9">
     <g id="line2d_18">
      <g>
       <use style="fill:#262626;stroke:#262626;stroke-width:1.25;" x="310.490937" xlink:href="#m11181487e5" y="151.908679"/>
      </g>
     </g>
    </g>
    <g id="ytick_10">
     <g id="line2d_19">
      <g>
       <use style="fill:#262626;stroke:#262626;stroke-width:1.25;" x="310.490937" xlink:href="#m11181487e5" y="114.562138"/>
      </g>
     </g>
    </g>
    <g id="ytick_11">
     <g id="line2d_20">
      <g>
       <use style="fill:#262626;stroke:#262626;stroke-width:1.25;" x="310.490937" xlink:href="#m11181487e5" y="77.215597"/>
      </g>
     </g>
    </g>
    <g id="ytick_12">
     <g id="line2d_21">
      <g>
       <use style="fill:#262626;stroke:#262626;stroke-width:1.25;" x="310.490937" xlink:href="#m11181487e5" y="39.869055"/>
      </g>
     </g>
    </g>
   </g>
   <g id="PathCollection_2">
    <defs>
     <path d="M 0 3.535534 
C 0.937635 3.535534 1.836992 3.163008 2.5 2.5 
C 3.163008 1.836992 3.535534 0.937635 3.535534 0 
C 3.535534 -0.937635 3.163008 -1.836992 2.5 -2.5 
C 1.836992 -3.163008 0.937635 -3.535534 0 -3.535534 
C -0.937635 -3.535534 -1.836992 -3.163008 -2.5 -2.5 
C -3.163008 -1.836992 -3.535534 -0.937635 -3.535534 0 
C -3.535534 0.937635 -3.163008 1.836992 -2.5 2.5 
C -1.836992 3.163008 -0.937635 3.535534 0 3.535534 
z
" id="m94b7923276" style="stroke:#ee854a;"/>
    </defs>
    <g clip-path="url(#p76e552819c)">
     <use style="fill:#ee854a;stroke:#ee854a;" x="418.088528" xlink:href="#m94b7923276" y="130.62115"/>
     <use style="fill:#ee854a;stroke:#ee854a;" x="396.199312" xlink:href="#m94b7923276" y="149.294421"/>
     <use style="fill:#ee854a;stroke:#ee854a;" x="450.922353" xlink:href="#m94b7923276" y="138.090459"/>
     <use style="fill:#ee854a;stroke:#ee854a;" x="407.14392" xlink:href="#m94b7923276" y="137.53026"/>
     <use style="fill:#ee854a;stroke:#ee854a;" x="429.033137" xlink:href="#m94b7923276" y="128.380358"/>
     <use style="fill:#ee854a;stroke:#ee854a;" x="461.866962" xlink:href="#m94b7923276" y="150.041352"/>
     <use style="fill:#ee854a;stroke:#ee854a;" x="374.310095" xlink:href="#m94b7923276" y="186.827695"/>
     <use style="fill:#ee854a;stroke:#ee854a;" x="352.420879" xlink:href="#m94b7923276" y="243.407704"/>
     <use style="fill:#ee854a;stroke:#ee854a;" x="439.977745" xlink:href="#m94b7923276" y="130.807883"/>
     <use style="fill:#ee854a;stroke:#ee854a;" x="385.254704" xlink:href="#m94b7923276" y="165.726899"/>
     <use style="fill:#ee854a;stroke:#ee854a;" x="363.365487" xlink:href="#m94b7923276" y="212.783541"/>
    </g>
   </g>
   <g id="line2d_22">
    <path clip-path="url(#p76e552819c)" d="M 331.97884 225.350225 
L 334.045979 223.586789 
L 336.113117 221.823353 
L 338.180255 220.059917 
L 340.247394 218.296481 
L 342.314532 216.533045 
L 344.38167 214.769609 
L 346.448809 213.006173 
L 348.515947 211.242737 
L 350.583085 209.479301 
L 352.650224 207.715865 
L 354.717362 205.952429 
L 356.7845 204.188993 
L 358.851639 202.425557 
L 360.918777 200.662121 
L 362.985915 198.898685 
L 365.053054 197.135249 
L 367.120192 195.371813 
L 369.18733 193.608377 
L 371.254469 191.844941 
L 373.321607 190.081505 
L 375.388745 188.318069 
L 377.455884 186.554633 
L 379.523022 184.791197 
L 381.59016 183.027761 
L 383.657299 181.264324 
L 385.724437 179.500888 
L 387.791575 177.737452 
L 389.858714 175.974016 
L 391.925852 174.21058 
L 393.99299 172.447144 
L 396.060128 170.683708 
L 398.127267 168.920272 
L 400.194405 167.156836 
L 402.261543 165.3934 
L 404.328682 163.629964 
L 406.39582 161.866528 
L 408.462958 160.103092 
L 410.530097 158.339656 
L 412.597235 156.57622 
L 414.664373 154.812784 
L 416.731512 153.049348 
L 418.79865 151.285912 
L 420.865788 149.522476 
L 422.932927 147.75904 
L 425.000065 145.995604 
L 427.067203 144.232168 
L 429.134342 142.468732 
L 431.20148 140.705296 
L 433.268618 138.94186 
L 435.335757 137.178424 
L 437.402895 135.414988 
L 439.470033 133.651552 
L 441.537172 131.888116 
L 443.60431 130.12468 
L 445.671448 128.361244 
L 447.738587 126.597808 
L 449.805725 124.834371 
L 451.872863 123.070935 
L 453.940002 121.307499 
L 456.00714 119.544063 
L 458.074278 117.780627 
L 460.141417 116.017191 
L 462.208555 114.253755 
L 464.275693 112.490319 
L 466.342832 110.726883 
L 468.40997 108.963447 
L 470.477108 107.200011 
L 472.544247 105.436575 
L 474.611385 103.673139 
L 476.678523 101.909703 
L 478.745661 100.146267 
L 480.8128 98.382831 
L 482.879938 96.619395 
L 484.947076 94.855959 
L 487.014215 93.092523 
L 489.081353 91.329087 
L 491.148491 89.565651 
L 493.21563 87.802215 
L 495.282768 86.038779 
L 497.349906 84.275343 
L 499.417045 82.511907 
L 501.484183 80.748471 
L 503.551321 78.985035 
L 505.61846 77.221599 
L 507.685598 75.458163 
L 509.752736 73.694727 
L 511.819875 71.931291 
L 513.887013 70.167854 
L 515.954151 68.404418 
L 518.02129 66.640982 
L 520.088428 64.877546 
L 522.155566 63.11411 
L 524.222705 61.350674 
L 526.289843 59.587238 
L 528.356981 57.823802 
L 530.42412 56.060366 
L 532.491258 54.29693 
L 534.558396 52.533494 
L 536.625535 50.770058 
" style="fill:none;stroke:#ee854a;stroke-linecap:round;stroke-width:2.25;"/>
   </g>
   <g id="patch_6">
    <path d="M 310.490937 256.599375 
L 310.490937 21.789375 
" style="fill:none;stroke:#262626;stroke-linecap:square;stroke-linejoin:miter;stroke-width:1.25;"/>
   </g>
   <g id="patch_7">
    <path d="M 310.490937 256.599375 
L 558.113437 256.599375 
" style="fill:none;stroke:#262626;stroke-linecap:square;stroke-linejoin:miter;stroke-width:1.25;"/>
   </g>
   <g id="text_9">
    <!-- dataset = II -->
    <g style="fill:#262626;" transform="translate(404.450312 15.789375)scale(0.12 -0.12)">
     <use xlink:href="#ArialMT-100"/>
     <use x="55.615234" xlink:href="#ArialMT-97"/>
     <use x="111.230469" xlink:href="#ArialMT-116"/>
     <use x="139.013672" xlink:href="#ArialMT-97"/>
     <use x="194.628906" xlink:href="#ArialMT-115"/>
     <use x="244.628906" xlink:href="#ArialMT-101"/>
     <use x="300.244141" xlink:href="#ArialMT-116"/>
     <use x="328.027344" xlink:href="#ArialMT-32"/>
     <use x="355.810547" xlink:href="#ArialMT-61"/>
     <use x="414.208984" xlink:href="#ArialMT-32"/>
     <use x="441.992188" xlink:href="#ArialMT-73"/>
     <use x="469.775391" xlink:href="#ArialMT-73"/>
    </g>
   </g>
  </g>
  <g id="axes_3">
   <g id="patch_8">
    <path d="M 43.908438 524.369375 
L 291.530937 524.369375 
L 291.530937 289.559375 
L 43.908438 289.559375 
z
" style="fill:#ffffff;"/>
   </g>
   <g id="matplotlib.axis_5">
    <g id="xtick_9">
     <g id="line2d_23">
      <g>
       <use style="fill:#262626;stroke:#262626;stroke-width:1.25;" x="96.782987" xlink:href="#m950a237a4c" y="524.369375"/>
      </g>
     </g>
     <g id="text_10">
      <!-- 5 -->
      <defs>
       <path d="M 4.15625 18.75 
L 13.375 19.53125 
Q 14.40625 12.796875 18.140625 9.390625 
Q 21.875 6 27.15625 6 
Q 33.5 6 37.890625 10.78125 
Q 42.28125 15.578125 42.28125 23.484375 
Q 42.28125 31 38.0625 35.34375 
Q 33.84375 39.703125 27 39.703125 
Q 22.75 39.703125 19.328125 37.765625 
Q 15.921875 35.84375 13.96875 32.765625 
L 5.71875 33.84375 
L 12.640625 70.609375 
L 48.25 70.609375 
L 48.25 62.203125 
L 19.671875 62.203125 
L 15.828125 42.96875 
Q 22.265625 47.46875 29.34375 47.46875 
Q 38.71875 47.46875 45.15625 40.96875 
Q 51.609375 34.46875 51.609375 24.265625 
Q 51.609375 14.546875 45.953125 7.46875 
Q 39.0625 -1.21875 27.15625 -1.21875 
Q 17.390625 -1.21875 11.203125 4.25 
Q 5.03125 9.71875 4.15625 18.75 
z
" id="ArialMT-53"/>
      </defs>
      <g style="fill:#262626;" transform="translate(93.724471 541.742969)scale(0.11 -0.11)">
       <use xlink:href="#ArialMT-53"/>
      </g>
     </g>
    </g>
    <g id="xtick_10">
     <g id="line2d_24">
      <g>
       <use style="fill:#262626;stroke:#262626;stroke-width:1.25;" x="151.506028" xlink:href="#m950a237a4c" y="524.369375"/>
      </g>
     </g>
     <g id="text_11">
      <!-- 10 -->
      <g style="fill:#262626;" transform="translate(145.388997 541.742969)scale(0.11 -0.11)">
       <use xlink:href="#ArialMT-49"/>
       <use x="55.615234" xlink:href="#ArialMT-48"/>
      </g>
     </g>
    </g>
    <g id="xtick_11">
     <g id="line2d_25">
      <g>
       <use style="fill:#262626;stroke:#262626;stroke-width:1.25;" x="206.22907" xlink:href="#m950a237a4c" y="524.369375"/>
      </g>
     </g>
     <g id="text_12">
      <!-- 15 -->
      <g style="fill:#262626;" transform="translate(200.112039 541.742969)scale(0.11 -0.11)">
       <use xlink:href="#ArialMT-49"/>
       <use x="55.615234" xlink:href="#ArialMT-53"/>
      </g>
     </g>
    </g>
    <g id="xtick_12">
     <g id="line2d_26">
      <g>
       <use style="fill:#262626;stroke:#262626;stroke-width:1.25;" x="260.952111" xlink:href="#m950a237a4c" y="524.369375"/>
      </g>
     </g>
     <g id="text_13">
      <!-- 20 -->
      <g style="fill:#262626;" transform="translate(254.83508 541.742969)scale(0.11 -0.11)">
       <use xlink:href="#ArialMT-50"/>
       <use x="55.615234" xlink:href="#ArialMT-48"/>
      </g>
     </g>
    </g>
    <g id="text_14">
     <!-- x -->
     <defs>
      <path d="M 0.734375 0 
L 19.671875 26.953125 
L 2.15625 51.859375 
L 13.140625 51.859375 
L 21.09375 39.703125 
Q 23.34375 36.234375 24.703125 33.890625 
Q 26.859375 37.109375 28.65625 39.59375 
L 37.40625 51.859375 
L 47.90625 51.859375 
L 29.984375 27.4375 
L 49.265625 0 
L 38.484375 0 
L 27.828125 16.109375 
L 25 20.453125 
L 11.375 0 
z
" id="ArialMT-120"/>
     </defs>
     <g style="fill:#262626;" transform="translate(164.719687 556.518594)scale(0.12 -0.12)">
      <use xlink:href="#ArialMT-120"/>
     </g>
    </g>
   </g>
   <g id="matplotlib.axis_6">
    <g id="ytick_13">
     <g id="line2d_27">
      <g>
       <use style="fill:#262626;stroke:#262626;stroke-width:1.25;" x="43.908438" xlink:href="#m11181487e5" y="494.371761"/>
      </g>
     </g>
     <g id="text_15">
      <!-- 4 -->
      <g style="fill:#262626;" transform="translate(28.291406 498.308558)scale(0.11 -0.11)">
       <use xlink:href="#ArialMT-52"/>
      </g>
     </g>
    </g>
    <g id="ytick_14">
     <g id="line2d_28">
      <g>
       <use style="fill:#262626;stroke:#262626;stroke-width:1.25;" x="43.908438" xlink:href="#m11181487e5" y="457.02522"/>
      </g>
     </g>
     <g id="text_16">
      <!-- 6 -->
      <g style="fill:#262626;" transform="translate(28.291406 460.962017)scale(0.11 -0.11)">
       <use xlink:href="#ArialMT-54"/>
      </g>
     </g>
    </g>
    <g id="ytick_15">
     <g id="line2d_29">
      <g>
       <use style="fill:#262626;stroke:#262626;stroke-width:1.25;" x="43.908438" xlink:href="#m11181487e5" y="419.678679"/>
      </g>
     </g>
     <g id="text_17">
      <!-- 8 -->
      <g style="fill:#262626;" transform="translate(28.291406 423.615476)scale(0.11 -0.11)">
       <use xlink:href="#ArialMT-56"/>
      </g>
     </g>
    </g>
    <g id="ytick_16">
     <g id="line2d_30">
      <g>
       <use style="fill:#262626;stroke:#262626;stroke-width:1.25;" x="43.908438" xlink:href="#m11181487e5" y="382.332138"/>
      </g>
     </g>
     <g id="text_18">
      <!-- 10 -->
      <g style="fill:#262626;" transform="translate(22.174375 386.268935)scale(0.11 -0.11)">
       <use xlink:href="#ArialMT-49"/>
       <use x="55.615234" xlink:href="#ArialMT-48"/>
      </g>
     </g>
    </g>
    <g id="ytick_17">
     <g id="line2d_31">
      <g>
       <use style="fill:#262626;stroke:#262626;stroke-width:1.25;" x="43.908438" xlink:href="#m11181487e5" y="344.985597"/>
      </g>
     </g>
     <g id="text_19">
      <!-- 12 -->
      <g style="fill:#262626;" transform="translate(22.174375 348.922393)scale(0.11 -0.11)">
       <use xlink:href="#ArialMT-49"/>
       <use x="55.615234" xlink:href="#ArialMT-50"/>
      </g>
     </g>
    </g>
    <g id="ytick_18">
     <g id="line2d_32">
      <g>
       <use style="fill:#262626;stroke:#262626;stroke-width:1.25;" x="43.908438" xlink:href="#m11181487e5" y="307.639055"/>
      </g>
     </g>
     <g id="text_20">
      <!-- 14 -->
      <g style="fill:#262626;" transform="translate(22.174375 311.575852)scale(0.11 -0.11)">
       <use xlink:href="#ArialMT-49"/>
       <use x="55.615234" xlink:href="#ArialMT-52"/>
      </g>
     </g>
    </g>
    <g id="text_21">
     <!-- y -->
     <g style="fill:#262626;" transform="translate(15.64875 409.964375)rotate(-90)scale(0.12 -0.12)">
      <use xlink:href="#ArialMT-121"/>
     </g>
    </g>
   </g>
   <g id="PathCollection_3">
    <defs>
     <path d="M 0 3.535534 
C 0.937635 3.535534 1.836992 3.163008 2.5 2.5 
C 3.163008 1.836992 3.535534 0.937635 3.535534 0 
C 3.535534 -0.937635 3.163008 -1.836992 2.5 -2.5 
C 1.836992 -3.163008 0.937635 -3.535534 0 -3.535534 
C -0.937635 -3.535534 -1.836992 -3.163008 -2.5 -2.5 
C -3.163008 -1.836992 -3.535534 -0.937635 -3.535534 0 
C -3.535534 0.937635 -3.163008 1.836992 -2.5 2.5 
C -1.836992 3.163008 -0.937635 3.535534 0 3.535534 
z
" id="m6728d343fc" style="stroke:#6acc64;"/>
    </defs>
    <g clip-path="url(#pfef251dff7)">
     <use style="fill:#6acc64;stroke:#6acc64;" x="151.506028" xlink:href="#m6728d343fc" y="429.762245"/>
     <use style="fill:#6acc64;stroke:#6acc64;" x="129.616812" xlink:href="#m6728d343fc" y="442.646802"/>
     <use style="fill:#6acc64;stroke:#6acc64;" x="184.339853" xlink:href="#m6728d343fc" y="331.167376"/>
     <use style="fill:#6acc64;stroke:#6acc64;" x="140.56142" xlink:href="#m6728d343fc" y="436.29789"/>
     <use style="fill:#6acc64;stroke:#6acc64;" x="162.450637" xlink:href="#m6728d343fc" y="423.2266"/>
     <use style="fill:#6acc64;stroke:#6acc64;" x="195.284462" xlink:href="#m6728d343fc" y="403.993131"/>
     <use style="fill:#6acc64;stroke:#6acc64;" x="107.727595" xlink:href="#m6728d343fc" y="455.531358"/>
     <use style="fill:#6acc64;stroke:#6acc64;" x="85.838379" xlink:href="#m6728d343fc" y="468.415915"/>
     <use style="fill:#6acc64;stroke:#6acc64;" x="173.395245" xlink:href="#m6728d343fc" y="416.877688"/>
     <use style="fill:#6acc64;stroke:#6acc64;" x="118.672204" xlink:href="#m6728d343fc" y="449.182446"/>
     <use style="fill:#6acc64;stroke:#6acc64;" x="96.782987" xlink:href="#m6728d343fc" y="462.067003"/>
    </g>
   </g>
   <g id="line2d_33">
    <path clip-path="url(#pfef251dff7)" d="M 55.164006 501.826472 
L 57.437858 499.887751 
L 59.71171 497.949029 
L 61.985562 496.010308 
L 64.259414 494.071586 
L 66.533266 492.132865 
L 68.807119 490.194143 
L 71.080971 488.255421 
L 73.354823 486.3167 
L 75.628675 484.377978 
L 77.902527 482.439257 
L 80.176379 480.500535 
L 82.450232 478.561814 
L 84.724084 476.623092 
L 86.997936 474.68437 
L 89.271788 472.745649 
L 91.54564 470.806927 
L 93.819492 468.868206 
L 96.093345 466.929484 
L 98.367197 464.990763 
L 100.641049 463.052041 
L 102.914901 461.113319 
L 105.188753 459.174598 
L 107.462605 457.235876 
L 109.736457 455.297155 
L 112.01031 453.358433 
L 114.284162 451.419712 
L 116.558014 449.48099 
L 118.831866 447.542268 
L 121.105718 445.603547 
L 123.37957 443.664825 
L 125.653423 441.726104 
L 127.927275 439.787382 
L 130.201127 437.848661 
L 132.474979 435.909939 
L 134.748831 433.971217 
L 137.022683 432.032496 
L 139.296536 430.093774 
L 141.570388 428.155053 
L 143.84424 426.216331 
L 146.118092 424.27761 
L 148.391944 422.338888 
L 150.665796 420.400166 
L 152.939648 418.461445 
L 155.213501 416.522723 
L 157.487353 414.584002 
L 159.761205 412.64528 
L 162.035057 410.706559 
L 164.308909 408.767837 
L 166.582761 406.829115 
L 168.856614 404.890394 
L 171.130466 402.951672 
L 173.404318 401.012951 
L 175.67817 399.074229 
L 177.952022 397.135508 
L 180.225874 395.196786 
L 182.499727 393.258064 
L 184.773579 391.319343 
L 187.047431 389.380621 
L 189.321283 387.4419 
L 191.595135 385.503178 
L 193.868987 383.564457 
L 196.142839 381.625735 
L 198.416692 379.687013 
L 200.690544 377.748292 
L 202.964396 375.80957 
L 205.238248 373.870849 
L 207.5121 371.932127 
L 209.785952 369.993406 
L 212.059805 368.054684 
L 214.333657 366.115962 
L 216.607509 364.177241 
L 218.881361 362.238519 
L 221.155213 360.299798 
L 223.429065 358.361076 
L 225.702918 356.422354 
L 227.97677 354.483633 
L 230.250622 352.544911 
L 232.524474 350.60619 
L 234.798326 348.667468 
L 237.072178 346.728747 
L 239.34603 344.790025 
L 241.619883 342.851303 
L 243.893735 340.912582 
L 246.167587 338.97386 
L 248.441439 337.035139 
L 250.715291 335.096417 
L 252.989143 333.157696 
L 255.262996 331.218974 
L 257.536848 329.280252 
L 259.8107 327.341531 
L 262.084552 325.402809 
L 264.358404 323.464088 
L 266.632256 321.525366 
L 268.906109 319.586645 
L 271.179961 317.647923 
L 273.453813 315.709201 
L 275.727665 313.77048 
L 278.001517 311.831758 
L 280.275369 309.893037 
" style="fill:none;stroke:#6acc64;stroke-linecap:round;stroke-width:2.25;"/>
   </g>
   <g id="patch_9">
    <path d="M 43.908438 524.369375 
L 43.908438 289.559375 
" style="fill:none;stroke:#262626;stroke-linecap:square;stroke-linejoin:miter;stroke-width:1.25;"/>
   </g>
   <g id="patch_10">
    <path d="M 43.908438 524.369375 
L 291.530937 524.369375 
" style="fill:none;stroke:#262626;stroke-linecap:square;stroke-linejoin:miter;stroke-width:1.25;"/>
   </g>
   <g id="text_22">
    <!-- dataset = III -->
    <g style="fill:#262626;" transform="translate(136.200937 283.559375)scale(0.12 -0.12)">
     <use xlink:href="#ArialMT-100"/>
     <use x="55.615234" xlink:href="#ArialMT-97"/>
     <use x="111.230469" xlink:href="#ArialMT-116"/>
     <use x="139.013672" xlink:href="#ArialMT-97"/>
     <use x="194.628906" xlink:href="#ArialMT-115"/>
     <use x="244.628906" xlink:href="#ArialMT-101"/>
     <use x="300.244141" xlink:href="#ArialMT-116"/>
     <use x="328.027344" xlink:href="#ArialMT-32"/>
     <use x="355.810547" xlink:href="#ArialMT-61"/>
     <use x="414.208984" xlink:href="#ArialMT-32"/>
     <use x="441.992188" xlink:href="#ArialMT-73"/>
     <use x="469.775391" xlink:href="#ArialMT-73"/>
     <use x="497.558594" xlink:href="#ArialMT-73"/>
    </g>
   </g>
  </g>
  <g id="axes_4">
   <g id="patch_11">
    <path d="M 310.490937 524.369375 
L 558.113437 524.369375 
L 558.113437 289.559375 
L 310.490937 289.559375 
z
" style="fill:#ffffff;"/>
   </g>
   <g id="matplotlib.axis_7">
    <g id="xtick_13">
     <g id="line2d_34">
      <g>
       <use style="fill:#262626;stroke:#262626;stroke-width:1.25;" x="363.365487" xlink:href="#m950a237a4c" y="524.369375"/>
      </g>
     </g>
     <g id="text_23">
      <!-- 5 -->
      <g style="fill:#262626;" transform="translate(360.306971 541.742969)scale(0.11 -0.11)">
       <use xlink:href="#ArialMT-53"/>
      </g>
     </g>
    </g>
    <g id="xtick_14">
     <g id="line2d_35">
      <g>
       <use style="fill:#262626;stroke:#262626;stroke-width:1.25;" x="418.088528" xlink:href="#m950a237a4c" y="524.369375"/>
      </g>
     </g>
     <g id="text_24">
      <!-- 10 -->
      <g style="fill:#262626;" transform="translate(411.971497 541.742969)scale(0.11 -0.11)">
       <use xlink:href="#ArialMT-49"/>
       <use x="55.615234" xlink:href="#ArialMT-48"/>
      </g>
     </g>
    </g>
    <g id="xtick_15">
     <g id="line2d_36">
      <g>
       <use style="fill:#262626;stroke:#262626;stroke-width:1.25;" x="472.81157" xlink:href="#m950a237a4c" y="524.369375"/>
      </g>
     </g>
     <g id="text_25">
      <!-- 15 -->
      <g style="fill:#262626;" transform="translate(466.694539 541.742969)scale(0.11 -0.11)">
       <use xlink:href="#ArialMT-49"/>
       <use x="55.615234" xlink:href="#ArialMT-53"/>
      </g>
     </g>
    </g>
    <g id="xtick_16">
     <g id="line2d_37">
      <g>
       <use style="fill:#262626;stroke:#262626;stroke-width:1.25;" x="527.534611" xlink:href="#m950a237a4c" y="524.369375"/>
      </g>
     </g>
     <g id="text_26">
      <!-- 20 -->
      <g style="fill:#262626;" transform="translate(521.41758 541.742969)scale(0.11 -0.11)">
       <use xlink:href="#ArialMT-50"/>
       <use x="55.615234" xlink:href="#ArialMT-48"/>
      </g>
     </g>
    </g>
    <g id="text_27">
     <!-- x -->
     <g style="fill:#262626;" transform="translate(431.302187 556.518594)scale(0.12 -0.12)">
      <use xlink:href="#ArialMT-120"/>
     </g>
    </g>
   </g>
   <g id="matplotlib.axis_8">
    <g id="ytick_19">
     <g id="line2d_38">
      <g>
       <use style="fill:#262626;stroke:#262626;stroke-width:1.25;" x="310.490937" xlink:href="#m11181487e5" y="494.371761"/>
      </g>
     </g>
    </g>
    <g id="ytick_20">
     <g id="line2d_39">
      <g>
       <use style="fill:#262626;stroke:#262626;stroke-width:1.25;" x="310.490937" xlink:href="#m11181487e5" y="457.02522"/>
      </g>
     </g>
    </g>
    <g id="ytick_21">
     <g id="line2d_40">
      <g>
       <use style="fill:#262626;stroke:#262626;stroke-width:1.25;" x="310.490937" xlink:href="#m11181487e5" y="419.678679"/>
      </g>
     </g>
    </g>
    <g id="ytick_22">
     <g id="line2d_41">
      <g>
       <use style="fill:#262626;stroke:#262626;stroke-width:1.25;" x="310.490937" xlink:href="#m11181487e5" y="382.332138"/>
      </g>
     </g>
    </g>
    <g id="ytick_23">
     <g id="line2d_42">
      <g>
       <use style="fill:#262626;stroke:#262626;stroke-width:1.25;" x="310.490937" xlink:href="#m11181487e5" y="344.985597"/>
      </g>
     </g>
    </g>
    <g id="ytick_24">
     <g id="line2d_43">
      <g>
       <use style="fill:#262626;stroke:#262626;stroke-width:1.25;" x="310.490937" xlink:href="#m11181487e5" y="307.639055"/>
      </g>
     </g>
    </g>
   </g>
   <g id="PathCollection_4">
    <defs>
     <path d="M 0 3.535534 
C 0.937635 3.535534 1.836992 3.163008 2.5 2.5 
C 3.163008 1.836992 3.535534 0.937635 3.535534 0 
C 3.535534 -0.937635 3.163008 -1.836992 2.5 -2.5 
C 1.836992 -3.163008 0.937635 -3.535534 0 -3.535534 
C -0.937635 -3.535534 -1.836992 -3.163008 -2.5 -2.5 
C -3.163008 -1.836992 -3.535534 -0.937635 -3.535534 0 
C -3.535534 0.937635 -3.163008 1.836992 -2.5 2.5 
C -1.836992 3.163008 -0.937635 3.535534 0 3.535534 
z
" id="mc86ebaabc8" style="stroke:#d65f5f;"/>
    </defs>
    <g clip-path="url(#pca8b998514)">
     <use style="fill:#d65f5f;stroke:#d65f5f;" x="396.199312" xlink:href="#mc86ebaabc8" y="446.194723"/>
     <use style="fill:#d65f5f;stroke:#d65f5f;" x="396.199312" xlink:href="#mc86ebaabc8" y="461.506805"/>
     <use style="fill:#d65f5f;stroke:#d65f5f;" x="396.199312" xlink:href="#mc86ebaabc8" y="425.093927"/>
     <use style="fill:#d65f5f;stroke:#d65f5f;" x="396.199312" xlink:href="#mc86ebaabc8" y="403.993131"/>
     <use style="fill:#d65f5f;stroke:#d65f5f;" x="396.199312" xlink:href="#mc86ebaabc8" y="410.902242"/>
     <use style="fill:#d65f5f;stroke:#d65f5f;" x="396.199312" xlink:href="#mc86ebaabc8" y="437.605018"/>
     <use style="fill:#d65f5f;stroke:#d65f5f;" x="396.199312" xlink:href="#mc86ebaabc8" y="471.030173"/>
     <use style="fill:#d65f5f;stroke:#d65f5f;" x="516.590003" xlink:href="#mc86ebaabc8" y="335.648961"/>
     <use style="fill:#d65f5f;stroke:#d65f5f;" x="396.199312" xlink:href="#mc86ebaabc8" y="465.241459"/>
     <use style="fill:#d65f5f;stroke:#d65f5f;" x="396.199312" xlink:href="#mc86ebaabc8" y="421.359273"/>
     <use style="fill:#d65f5f;stroke:#d65f5f;" x="396.199312" xlink:href="#mc86ebaabc8" y="440.406009"/>
    </g>
   </g>
   <g id="line2d_44">
    <path clip-path="url(#pca8b998514)" d="M 310.490937 511.436151 
L 312.992175 509.302782 
L 315.493412 507.169412 
L 317.99465 505.036042 
L 320.495887 502.902673 
L 322.997124 500.769303 
L 325.498362 498.635934 
L 327.999599 496.502564 
L 330.500836 494.369194 
L 333.002074 492.235825 
L 335.503311 490.102455 
L 338.004549 487.969085 
L 340.505786 485.835716 
L 343.007023 483.702346 
L 345.508261 481.568976 
L 348.009498 479.435607 
L 350.510735 477.302237 
L 353.011973 475.168867 
L 355.51321 473.035498 
L 358.014448 470.902128 
L 360.515685 468.768759 
L 363.016922 466.635389 
L 365.51816 464.502019 
L 368.019397 462.36865 
L 370.520634 460.23528 
L 373.021872 458.10191 
L 375.523109 455.968541 
L 378.024347 453.835171 
L 380.525584 451.701801 
L 383.026821 449.568432 
L 385.528059 447.435062 
L 388.029296 445.301692 
L 390.530533 443.168323 
L 393.031771 441.034953 
L 395.533008 438.901584 
L 398.034246 436.768214 
L 400.535483 434.634844 
L 403.03672 432.501475 
L 405.537958 430.368105 
L 408.039195 428.234735 
L 410.540432 426.101366 
L 413.04167 423.967996 
L 415.542907 421.834626 
L 418.044145 419.701257 
L 420.545382 417.567887 
L 423.046619 415.434518 
L 425.547857 413.301148 
L 428.049094 411.167778 
L 430.550331 409.034409 
L 433.051569 406.901039 
L 435.552806 404.767669 
L 438.054044 402.6343 
L 440.555281 400.50093 
L 443.056518 398.36756 
L 445.557756 396.234191 
L 448.058993 394.100821 
L 450.56023 391.967451 
L 453.061468 389.834082 
L 455.562705 387.700712 
L 458.063943 385.567343 
L 460.56518 383.433973 
L 463.066417 381.300603 
L 465.567655 379.167234 
L 468.068892 377.033864 
L 470.570129 374.900494 
L 473.071367 372.767125 
L 475.572604 370.633755 
L 478.073842 368.500385 
L 480.575079 366.367016 
L 483.076316 364.233646 
L 485.577554 362.100276 
L 488.078791 359.966907 
L 490.580028 357.833537 
L 493.081266 355.700168 
L 495.582503 353.566798 
L 498.083741 351.433428 
L 500.584978 349.300059 
L 503.086215 347.166689 
L 505.587453 345.033319 
L 508.08869 342.89995 
L 510.589927 340.76658 
L 513.091165 338.63321 
L 515.592402 336.499841 
L 518.09364 334.366471 
L 520.594877 332.233101 
L 523.096114 330.099732 
L 525.597352 327.966362 
L 528.098589 325.832993 
L 530.599826 323.699623 
L 533.101064 321.566253 
L 535.602301 319.432884 
L 538.103539 317.299514 
L 540.604776 315.166144 
L 543.106013 313.032775 
L 545.607251 310.899405 
L 548.108488 308.766035 
L 550.609725 306.632666 
L 553.110963 304.499296 
L 555.6122 302.365926 
L 558.113437 300.232557 
" style="fill:none;stroke:#d65f5f;stroke-linecap:round;stroke-width:2.25;"/>
   </g>
   <g id="patch_12">
    <path d="M 310.490937 524.369375 
L 310.490937 289.559375 
" style="fill:none;stroke:#262626;stroke-linecap:square;stroke-linejoin:miter;stroke-width:1.25;"/>
   </g>
   <g id="patch_13">
    <path d="M 310.490937 524.369375 
L 558.113437 524.369375 
" style="fill:none;stroke:#262626;stroke-linecap:square;stroke-linejoin:miter;stroke-width:1.25;"/>
   </g>
   <g id="text_28">
    <!-- dataset = IV -->
    <defs>
     <path d="M 28.171875 0 
L 0.4375 71.578125 
L 10.6875 71.578125 
L 29.296875 19.578125 
Q 31.546875 13.328125 33.0625 7.859375 
Q 34.71875 13.71875 36.921875 19.578125 
L 56.25 71.578125 
L 65.921875 71.578125 
L 37.890625 0 
z
" id="ArialMT-86"/>
    </defs>
    <g style="fill:#262626;" transform="translate(402.115 283.559375)scale(0.12 -0.12)">
     <use xlink:href="#ArialMT-100"/>
     <use x="55.615234" xlink:href="#ArialMT-97"/>
     <use x="111.230469" xlink:href="#ArialMT-116"/>
     <use x="139.013672" xlink:href="#ArialMT-97"/>
     <use x="194.628906" xlink:href="#ArialMT-115"/>
     <use x="244.628906" xlink:href="#ArialMT-101"/>
     <use x="300.244141" xlink:href="#ArialMT-116"/>
     <use x="328.027344" xlink:href="#ArialMT-32"/>
     <use x="355.810547" xlink:href="#ArialMT-61"/>
     <use x="414.208984" xlink:href="#ArialMT-32"/>
     <use x="441.992188" xlink:href="#ArialMT-73"/>
     <use x="469.775391" xlink:href="#ArialMT-86"/>
    </g>
   </g>
  </g>
 </g>
 <defs>
  <clipPath id="p3473fd98e6">
   <rect height="234.81" width="247.6225" x="43.908438" y="21.789375"/>
  </clipPath>
  <clipPath id="p76e552819c">
   <rect height="234.81" width="247.6225" x="310.490937" y="21.789375"/>
  </clipPath>
  <clipPath id="pfef251dff7">
   <rect height="234.81" width="247.6225" x="43.908438" y="289.559375"/>
  </clipPath>
  <clipPath id="pca8b998514">
   <rect height="234.81" width="247.6225" x="310.490937" y="289.559375"/>
  </clipPath>
 </defs>
</svg>
